<svg height="32" viewBox="0 0 32 32" width="32" xmlns="http://www.w3.org/2000/svg"><g fill="#f16469"><path d="m2.4 14.4a2.2 2.2 0 0 1 2.4 2.3l-.7.2-3.2.5v.2a2 2 0 0 0 2.1 2.2 2.5 2.5 0 0 0 1.7-.6l.2.4a2.8 2.8 0 0 1 -2.4 1.3 2.9 2.9 0 0 1 -3-3.1 3.2 3.2 0 0 1 2.9-3.4zm-1.6 2.5 2.5-.4s0-1.5-1.1-1.5-1.4.8-1.4 1.9zm.8-3.3 1.1-2.4h1.4v.4l-2 2.3z"/><path d="m8.8 14.4c.8 0 2.1.3 2.1 1.1a.5.5 0 0 1 -.5.5c-.8 0-.8-1.1-1.8-1.1s-1.6 1.1-1.6 2.4.7 2.5 2.2 2.5a2.6 2.6 0 0 0 1.6-.5l.2.4a2.8 2.8 0 0 1 -2.4 1.2 2.9 2.9 0 0 1 -2.9-3.1 3.2 3.2 0 0 1 3.1-3.4z"/><path d="m11.8 20.3c.6 0 .8-.3.8-.8v-3.3c0-.6 0-.9-.4-.9h-.6v-.4a15.7 15.7 0 0 0 2.5-.7 13.1 13.1 0 0 0 -.2 1.8c.3-.5 1-1.6 1.9-1.6a.8.8 0 0 1 .1 1.5c-.4 0-.5-.3-.8-.3s-.9.5-1.1.7v3.2a2.4 2.4 0 0 1 -.1.7h1.3v.4h-3.4z"/><path d="m17.1 20.3c.6 0 .8-.3.8-.8v-3.3c0-.6 0-.9-.4-.9h-.5v-.4a12.1 12.1 0 0 0 2.4-.7h.1a4.8 4.8 0 0 0 -.2 1.6v4.4h1.1v.4h-3.3zm.6-8a.8.8 0 0 1 .8-.9.9.9 0 0 1 .9.9.9.9 0 0 1 -.9.8.8.8 0 0 1 -.8-.8z"/><path d="m21.1 20.3a.7.7 0 0 0 .8-.8v-3.3c0-.6 0-.9-.4-.9h-.6v-.4a16.4 16.4 0 0 0 2.4-.7h.1a4.8 4.8 0 0 0 -.2 1.8c.2-.5 1-1.6 1.9-1.6a.8.8 0 0 1 .8.7.8.8 0 0 1 -.8.8c-.3 0-.4-.3-.7-.3a1.5 1.5 0 0 0 -1.1.7v3.2a2.4 2.4 0 0 1 -.1.7h1.3v.4h-3.4z"/><path d="m29.3 14.4a2.2 2.2 0 0 1 2.4 2.3l-.7.2-3.2.5v.2a2 2 0 0 0 2.1 2.2 2.5 2.5 0 0 0 1.7-.6l.2.4a2.8 2.8 0 0 1 -2.4 1.3 2.9 2.9 0 0 1 -3-3.1 3.2 3.2 0 0 1 2.9-3.4zm-1.6 2.5 2.5-.4s0-1.5-1.1-1.5-1.4.8-1.4 1.9z"/></g></svg>