<svg height="256" viewBox="0 0 256 256" width="256" xmlns="http://www.w3.org/2000/svg"><g fill="#f16469"><path d="m31 108.6c8.8 0 17.2 5.5 17.6 17.1a37.7 37.7 0 0 1 -5.5 1.6l-23.3 3.4-.9 1.2c.7 8.5 5.1 16.6 15.9 16.6a19.5 19.5 0 0 0 12.5-4.5l1.1 2.5a20.5 20.5 0 0 1 -17.5 9.7c-14.4 0-21.8-11.1-21.8-22.9 0-13.7 9.4-24.7 21.9-24.7zm-12.1 18.1 19-2.5s-.6-11.4-8.7-11.4c-6.1 0-9.7 6.4-10.3 13.9zm6.2-24.2 8.1-17.1 10.1-.9v2.7l-14.8 17.2z"/><path d="m77.7 108.6c6 0 15.9 2.2 15.9 7.8a4.1 4.1 0 0 1 -4.3 4.1c-5.3 0-5.6-8.1-12.6-8.1s-11.7 8.2-11.7 17.5 4.8 18.6 16 18.6a19.3 19.3 0 0 0 11.7-3.8l1.1 2.4s-4.9 9.1-17.1 9.1c-14 0-21.5-11.2-21.5-22.8s7.9-24.8 22.5-24.8z"/><path d="m99.8 152.2c4.3-.5 6-2.9 6-6.5v-24c0-4.2-.1-6.7-3-6.7h-4.3v-2.9a103.7 103.7 0 0 0 17.9-4.9l.3.3s-.9 2.8-1.2 12.5c1.7-3.2 7.4-11.4 13.8-11.4 3.1 0 5.7 2 5.7 5.2a5.3 5.3 0 0 1 -5.4 5.5c-2.7 0-3.1-1.8-5.5-1.8s-6.9 3.3-8.1 4.7v23.5a29.5 29.5 0 0 1 -.5 5.4l9.3.9-.4 2.7-24.6.6z"/><path d="m138.9 152.2c4.3-.5 6-2.9 6-6.5v-24.1c0-4.2-.1-6.7-3-6.7h-4.3v-2.9c13.4-2.7 18.3-4.8 18.3-4.8l.2.3s-1 3.3-1 11.4v26.8a29.5 29.5 0 0 1 -.5 5.4l8.3.9-.4 2.7-23.6.6zm3.9-59.3a6.3 6.3 0 0 1 12.6 0 6.3 6.3 0 0 1 -12.6 0z"/><path d="m167.7 152.2c4.3-.5 6-2.9 6-6.5v-24c0-4.2-.1-6.7-3-6.7h-4.3v-2.9a103.7 103.7 0 0 0 17.9-4.9l.3.3s-.9 2.8-1.2 12.5c1.7-3.2 7.4-11.4 13.8-11.4 3.1 0 5.7 2 5.7 5.2a5.3 5.3 0 0 1 -5.4 5.5c-2.7 0-3.1-1.8-5.5-1.8s-6.9 3.3-8.1 4.7v23.5a29.5 29.5 0 0 1 -.5 5.4l9.3.9-.4 2.7-24.6.6z"/><path d="m228.1 108.6c8.8 0 17.2 5.5 17.6 17.1a37.7 37.7 0 0 1 -5.5 1.6l-23.3 3.4-.9 1.2c.7 8.5 5.1 16.6 15.9 16.6a19.5 19.5 0 0 0 12.5-4.5l1.1 2.5a20.5 20.5 0 0 1 -17.5 9.7c-14.4 0-21.8-11.1-21.8-22.9 0-13.7 9.4-24.7 21.9-24.7zm-12.1 18.1 19-2.5s-.6-11.4-8.7-11.4c-6.1 0-9.7 6.4-10.3 13.9z"/></g></svg>