<svg height="16" viewBox="0 0 16 16" width="16" xmlns="http://www.w3.org/2000/svg"><g fill="#f16469"><path d="m1.4 7.2a1.2 1.2 0 0 1 1.2 1.2h-.4l-1.5.3h-.1a1 1 0 0 0 1.1 1.2 1.2 1.2 0 0 0 .8-.3v.2a1.5 1.5 0 0 1 -1.2.6 1.4 1.4 0 0 1 -1.4-1.5 1.6 1.6 0 0 1 1.5-1.7zm-.8 1.2h1.3s0-.8-.6-.8a.8.8 0 0 0 -.7.8zm.4-1.6.6-1.2h.7l-1 1.2z"/><path d="m4.6 7.2c.4 0 1.1.1 1.1.5a.3.3 0 0 1 -.3.3c-.4 0-.4-.5-.9-.5s-.8.5-.8 1.2a1.1 1.1 0 0 0 1.1 1.2 1.5 1.5 0 0 0 .8-.2h.1a1.3 1.3 0 0 1 -1.2.6 1.4 1.4 0 0 1 -1.4-1.4 1.6 1.6 0 0 1 1.5-1.7z"/><path d="m6.1 10.2c.3-.1.4-.2.4-.5v-1.6c0-.3 0-.5-.2-.5h-.3v-.2l1.2-.3h.1a2.4 2.4 0 0 0 -.1.9c.1-.2.5-.8.9-.8a.4.4 0 0 1 .4.4.3.3 0 0 1 -.3.3h-.4a.9.9 0 0 0 -.6.3v2z"/><path d="m8.8 10.2c.3-.1.4-.2.4-.5v-1.6c0-.3 0-.5-.2-.5h-.3v-.2l1.2-.3h.1a2 2 0 0 0 -.1.8v2.2h-1.1zm.3-4.1a.4.4 0 0 1 .4-.4.4.4 0 0 1 .4.4.4.4 0 0 1 -.4.4c-.3 0-.4-.1-.4-.4z"/><path d="m10.7 10.2c.3-.1.5-.2.5-.5v-1.6c0-.3 0-.5-.2-.5h-.3v-.2l1.2-.3a2.4 2.4 0 0 0 -.1.9c.1-.2.5-.8 1-.8a.4.4 0 0 1 .4.4c0 .2-.2.3-.4.3h-.4c-.2 0-.5.2-.5.3v1.5a1 1 0 0 1 -.1.4h-1.1z"/><path d="m14.9 7.2a1.2 1.2 0 0 1 1.2 1.2h-.4l-1.6.2h-.1c.1.6.4 1.1 1.1 1.1a1.3 1.3 0 0 0 .9-.3v.2a1.5 1.5 0 0 1 -1.2.6 1.4 1.4 0 0 1 -1.5-1.5 1.5 1.5 0 0 1 1.6-1.5zm-.9 1.2h1.3s0-.8-.6-.8-.6.3-.7.8z"/></g></svg>