<svg xmlns="http://www.w3.org/2000/svg"><symbol id="close" viewBox="0 0 40.9 43.7"><path d="M36.4 39.4a1.4 1.4 0 0 1-1-.5l-32-32a1.5 1.5 0 0 1 0-2.1 1.5 1.5 0 0 1 2.1 0l32 32a1.5 1.5 0 0 1 0 2.1 1.6 1.6 0 0 1-1.1.5z"/><path d="M4.4 39.4a1.4 1.4 0 0 1-1-.5 1.4 1.4 0 0 1 0-2.1l32-32a1.5 1.5 0 1 1 2.1 2.1l-32 32a1.6 1.6 0 0 1-1.1.5z"/></symbol><symbol id="fb" viewBox="0 0 40.9 43.7"><path fill="#f15e5e" d="M40.1 19.2v5.5c-.1.5-.3 1-.4 1.5a19.8 19.8 0 0 1-13.5 14.6l-3 .8h-5.5l-1.1-.4C8.8 39.4 3.8 34.7 1.5 27.1a21.7 21.7 0 0 1-.7-2.4v-5.5c.1-.5.3-1 .4-1.5A19.4 19.4 0 0 1 14.7 3.1l3-.8h5.5l1.5.4c7.4 1.9 12.4 6.5 14.7 13.9.2.8.5 1.7.7 2.6zM16.5 35.5h5.4V22.8l3.5-.2.4-4.3-3.7-.3c-.4-3.1-.4-3.1 3.7-3.9V9.5c-2.6.4-5.1.4-7.1 1.4s-2 4.5-2.3 7.1l-2.2.3v4.3l2.3.2z"/><path fill="#fff" d="M17.7 2.3l-3 .8A19.4 19.4 0 0 0 1.2 17.7c-.1.5-.3 1-.4 1.5V2.3zm22.4 16.9c-.2-.9-.5-1.8-.7-2.6-2.3-7.4-7.3-12-14.7-13.9l-1.5-.4h16.9zM.8 24.7a21.7 21.7 0 0 0 .7 2.4c2.3 7.6 7.3 12.3 15.1 14.1l1.1.4H.8zm22.4 16.9l3-.8a19.8 19.8 0 0 0 13.5-14.6c.1-.5.3-1 .4-1.5v16.9zm-6.7-6.1V22.8l-2.3-.2v-4.3l2.2-.3c.3-2.6-.5-5.7 2.3-7.1s4.5-1 7.1-1.4v4.6c-4.1.8-4.1.8-3.7 3.9l3.7.3-.4 4.3-3.5.2v12.7z"/></symbol><symbol id="credit-card" viewBox="0 0 40.9 43.7"><path d="M37.1 38.3H4a1.4 1.4 0 0 1-1.5-1.5V15.6A1.4 1.4 0 0 1 4 14.1h33.1a1.5 1.5 0 0 1 1.5 1.5v21.2a1.5 1.5 0 0 1-1.5 1.5zm-31.6-3h30.1V17.1H5.5z"/><path d="M37.1 20.3H4a1.4 1.4 0 0 1-1.5-1.5v-3.2A1.4 1.4 0 0 1 4 14.1h33.1a1.5 1.5 0 0 1 1.5 1.5v3.2a1.5 1.5 0 0 1-1.5 1.5zm-31.6-3h30.1v-.2H5.5z"/></symbol><symbol id="full-review" viewBox="0 0 40.9 43.7"><path fill="#f7ed44" d="M36.4 17.8L28.6 26l2 11.5-10-5.2-9.8 5.6 1.8-11.6-8.2-8 11.1-1.9 4.8-10.5 5.1 10.4 11 1.5z"/><path fill="#231f20" d="M10.8 39.4a1.1 1.1 0 0 1-.8-.3 1.7 1.7 0 0 1-.7-1.5L11 26.8l-7.6-7.5a1.4 1.4 0 0 1-.4-1.5 1.5 1.5 0 0 1 1.2-1l10.2-1.7 4.5-9.9a1.3 1.3 0 0 1 1.3-.8 1.6 1.6 0 0 1 1.4.8l4.7 9.7 10.3 1.4a1.2 1.2 0 0 1 1.2 1 1.4 1.4 0 0 1-.3 1.5l-7.3 7.7 1.9 10.8a1.3 1.3 0 0 1-.6 1.4 1.6 1.6 0 0 1-1.6.2L20.7 34l-9.1 5.2zM7.6 19.3l6 5.9a1.7 1.7 0 0 1 .4 1.3L12.8 35l7.1-4a1.4 1.4 0 0 1 1.4-.1l7.3 3.9-1.5-8.5a1.3 1.3 0 0 1 .4-1.3l5.8-6.2-8.2-1.1a1.3 1.3 0 0 1-1.1-.8l-3.7-7.5-3.5 7.6a1.4 1.4 0 0 1-1.1.9z"/></symbol><symbol id="half-review" viewBox="0 0 40.9 43.7"><path fill="#231f20" d="M30.6 39.3h-.7l-10-5.4a1.5 1.5 0 0 1 1.5-2.7l7.2 3.8-1.5-8.6a1.2 1.2 0 0 1 .4-1.3l5.9-6.4-8.3-1.1a1.5 1.5 0 0 1-1.1-.8L19.1 6.5a1.4 1.4 0 0 1 .7-2 1.5 1.5 0 0 1 2 .7l4.6 9.5 10.2 1.4a1.4 1.4 0 0 1 1.2 1 1.6 1.6 0 0 1-.3 1.6l-7.3 7.9 1.9 11a1.3 1.3 0 0 1-.6 1.4 1.6 1.6 0 0 1-.9.3z"/><path fill="#f7ed44" d="M20.4 6.2l-.1-.3-4.8 10.5-11.1 1.9 8.2 8-1.8 11.6 9.6-5.5"/><path fill="#231f20" d="M10.8 39.4a1.1 1.1 0 0 1-.8-.3 1.7 1.7 0 0 1-.7-1.5L11 26.8l-7.6-7.5a1.4 1.4 0 0 1-.4-1.5 1.5 1.5 0 0 1 1.2-1l10.2-1.7 4.5-9.9a1.3 1.3 0 0 1 1.3-.8 1.4 1.4 0 0 1 1.4.8l.2.4a1.5 1.5 0 0 1-.7 1.9L16.8 17a1.4 1.4 0 0 1-1.1.9l-8.1 1.4 6 5.9a1.7 1.7 0 0 1 .4 1.3L12.8 35l6.9-3.9a1.5 1.5 0 0 1 2 .5 1.6 1.6 0 0 1-.5 2.1l-9.6 5.5z"/></symbol><symbol id="instagram" viewBox="0 0 39.1 39.1"><path fill="#f15e5e" d="M22.3 39h-5.5l-1.4-.4A19.7 19.7 0 0 1 .9 25.5L0 22.3v-5.5l.5-1.4A19.2 19.2 0 0 1 13.8.9c1-.4 2-.6 3-.9h5.4l1.1.4c7.7 1.8 12.7 6.4 15 14a21.7 21.7 0 0 1 .7 2.4v5.4c-.1.5-.3 1-.4 1.5a19.6 19.6 0 0 1-13.3 14.5zm-2.8-7.7h5.7a5.8 5.8 0 0 0 6-6c.1-3.9.1-7.7 0-11.5a5.7 5.7 0 0 0-5.7-5.9c-4-.1-8-.1-11.9 0a5.9 5.9 0 0 0-5.8 5.7c0 4 0 8 .1 12.1a5.7 5.7 0 0 0 5.6 5.6z"/><path fill="#fff" d="M39 16.8a21.7 21.7 0 0 0-.7-2.4C36 6.8 31 2.2 23.3.4L22.2 0H39zM22.3 39l3-.8a19.6 19.6 0 0 0 13.3-14.5c.1-.5.3-1 .4-1.5V39zM16.8 0l-3 .9A19.2 19.2 0 0 0 .5 15.4L0 16.8V.1zM0 22.3l.9 3.2a19.7 19.7 0 0 0 14.5 13.1l1.4.4H.1zm19.5 9h-6a5.7 5.7 0 0 1-5.6-5.6c-.1-4.1-.1-8.1-.1-12.1a5.9 5.9 0 0 1 5.8-5.7c3.9-.1 7.9-.1 11.9 0a5.7 5.7 0 0 1 5.7 5.9c.1 3.8.1 7.6 0 11.5a5.8 5.8 0 0 1-6 6zm9.2-11.7c0-1.8.1-3.6 0-5.4s-1.2-3.7-3.7-3.8H14.1c-2.5.1-3.7 1.3-3.8 3.8s0 7.3.1 10.9 1.3 3.7 3.8 3.7h10.7c2.6-.1 3.8-1.3 3.8-3.9v-5.3z"/><path fill="#f15e5e" d="M28.7 19.6c0 1.8.1 3.5 0 5.3s-1.2 3.8-3.8 3.9H14.2c-2.5 0-3.8-1.3-3.8-3.7s-.1-7.3-.1-10.9 1.3-3.7 3.8-3.8H25c2.5.1 3.6 1.3 3.7 3.8s0 3.6 0 5.4zm-9.2-6a6 6 0 1 0 6 5.9 5.9 5.9 0 0 0-6-5.9zm6.2-2.2c-.6.9-1.3 1.5-1.2 2s.8.9 1.2 1.4 1.2-1 1.3-1.6-.6-.9-1.3-1.8z"/><path fill="#fff" d="M19.5 13.6a6 6 0 1 1 0 12 6 6 0 1 1 0-12zm3.5 6a3.5 3.5 0 0 0-3.4-3.5 3.5 3.5 0 0 0-3.6 3.6 3.5 3.5 0 0 0 3.6 3.3 3.4 3.4 0 0 0 3.4-3.4zm2.7-8.2c.7.9 1.4 1.4 1.3 1.8s-.8 1.1-1.3 1.6-1.2-.9-1.2-1.4.6-1.1 1.2-2z"/><path fill="#f15e5e" d="M23 19.6a3.4 3.4 0 0 1-3.4 3.4 3.5 3.5 0 0 1-3.6-3.3 3.5 3.5 0 0 1 3.6-3.6 3.5 3.5 0 0 1 3.4 3.5z"/></symbol><symbol id="review-star" viewBox="0 0 40.9 49"><path fill="#231f20" d="M10.8 40.5l-.8-.2a1.8 1.8 0 0 1-.7-1.5L11 28l-7.6-7.5A1.4 1.4 0 0 1 3 19a1.5 1.5 0 0 1 1.2-1l10.2-1.7 4.5-9.9a1.4 1.4 0 0 1 1.3-.9 1.9 1.9 0 0 1 1.4.9l4.7 9.7 10.3 1.4a1.2 1.2 0 0 1 1.2.9 1.5 1.5 0 0 1-.3 1.6l-7.3 7.7 1.9 10.8a1.5 1.5 0 0 1-2.2 1.5l-9.2-4.9-9.1 5.2a1.2 1.2 0 0 1-.8.2zM7.6 20.4l6 6a1.6 1.6 0 0 1 .4 1.3l-1.2 8.5 7.1-4.1a1.7 1.7 0 0 1 1.4 0l7.3 3.8-1.5-8.4a1.2 1.2 0 0 1 .4-1.3l5.8-6.2-8.2-1.1a1.5 1.5 0 0 1-1.1-.8l-3.7-7.5-3.5 7.6a1.4 1.4 0 0 1-1.1.9z"/></symbol><symbol id="shopping-bag" viewBox="0 0 40.9 43.7"><path d="M36.4 39h-32a1.6 1.6 0 0 1-1.1-.5 2 2 0 0 1-.4-1.3l3.6-22.8A1.6 1.6 0 0 1 8 13.1h23.2a1.4 1.4 0 0 1 1.4 1.2l5.3 22.8a1.4 1.4 0 0 1-.3 1.3 1.4 1.4 0 0 1-1.2.6zM6.2 36h28.3L30 16.1H9.3z"/><path d="M27.4 16.1a1.4 1.4 0 0 1-1.4-.9c-2.3-5.3-4.7-8.3-6.8-8.2s-5.8 5.8-6.5 7.8a1.6 1.6 0 0 1-2 .9 1.5 1.5 0 0 1-.8-1.9c.3-1 3.7-9.7 9.3-9.8 3.5-.1 6.6 3.2 9.6 10.1A1.5 1.5 0 0 1 28 16z"/></symbol><symbol id="togglenav" viewBox="0 0 40.9 43.7"><path d="M36.6 7h-32a1.5 1.5 0 0 1-1.5-1.5A1.5 1.5 0 0 1 4.6 4h32a1.5 1.5 0 0 1 1.5 1.5A1.5 1.5 0 0 1 36.6 7zm0 16h-32a1.5 1.5 0 1 1 0-3h32a1.5 1.5 0 0 1 0 3zm0 16h-32a1.5 1.5 0 0 1 0-3h32a1.5 1.5 0 0 1 0 3z"/></symbol><symbol id="twitter" viewBox="0 0 40.9 40.9"><path fill="#f15c5d" d="M40.9 17.6v5.7l-.4 1.6c-2 7.6-6.6 12.6-14.1 15.1a28 28 0 0 1-3.1.9h-5.7l-1.1-.4C8.4 38.7 3.1 33.8.7 25.9c-.2-.9-.5-1.7-.7-2.6v-5.7A7.5 7.5 0 0 0 .4 16 20.8 20.8 0 0 1 14.3.9l3.3-.9h5.7l1.6.4C32.5 2.4 37.5 7 40 14.5c.4 1 .6 2.1.9 3.1zm-9.3-4.4a3.5 3.5 0 0 1-3.8-.2 4.6 4.6 0 0 0-6.9 3.9c-.1 1.4-.5 1.6-1.7 1.3a15.3 15.3 0 0 1-8.4-4.8 5.1 5.1 0 0 0 .9 6c-.4.7-1.5-.5-1.4.6s1.3 3 2.9 3.9c-.3.5-1.2.1-1.1.6s2.1 2.6 3.9 3.2c-1.9 1.6-3.9 1.8-6.5 2l1.3.8a13.8 13.8 0 0 0 19.5-10.2c.3-1.6 0-3.3 1.7-4.4s.4-.6.2-.6c-2.4-.4.3-1.4-.6-2.1z"/></symbol><symbol id="warning" viewBox="0 0 40.9 43.7"><path fill="#ee3433" d="M20.4 36.8a16.4 16.4 0 1 1 16.4-16.4 16.4 16.4 0 0 1-16.4 16.4zm0-29.8a13.4 13.4 0 1 0 13.4 13.4A13.4 13.4 0 0 0 20.4 7z"/><path fill="#ee3433" d="M18.9 26.8a1.3 1.3 0 1 1 1.3 1.4 1.3 1.3 0 0 1-1.3-1.4zm.5-3.2l-.3-10.7h2.2L21 23.6z"/></symbol></svg>