<svg id="Layer_1" data-name="Layer 1" xmlns="http://www.w3.org/2000/svg" width="16" height="16" viewBox="0 0 16 16"><title>logo-16</title><rect x="0.4" y="4.5" width="15.2" height="7.58" rx="0.5" ry="0.5" fill="#f15c5d"/><rect y="2.6" width="16" height="1.25" rx="0.2" ry="0.2" fill="#f15c5d"/><rect x="0.4" y="4.1" width="15.2" height="0.69" fill="#f7ed44" stroke="#f7ed44" stroke-linecap="round" stroke-linejoin="round" stroke-width="0.25"/><rect x="7.9" y="3.6" width="0.6" height="1.53" fill="#f7ed44" stroke="#f7ed44" stroke-linecap="round" stroke-linejoin="round" stroke-width="0.25"/><rect x="7.9" y="5.1" width="0.6" height="0.7" fill="none" stroke="#f7ed44" stroke-linecap="round" stroke-linejoin="round" stroke-width="0.25"/><path d="M7.1,11.2c.2,0,.2-.1.2-.3V9.2h.5v1.7c0,.4-.2.7-.6.7H6.8v-.3ZM7.6,9a.3.3,0,1,1,.3-.3A.3.3,0,0,1,7.6,9Z" fill="#f7ed44"/><path d="M9.5,10.8H9a.6.6,0,0,1-.7-.7V9.6H8.1V9.2h.2V8.8h.5v.4h.6v.4H8.8v.6a.3.3,0,0,0,.3.3h.2Z" fill="#f7ed44"/></svg>