<svg id="Layer_1" data-name="Layer 1" xmlns="http://www.w3.org/2000/svg" width="64" height="64" viewBox="0 0 64 64"><title>logo-64</title><rect x="1.6" y="19.9" width="61.4" height="32.29" rx="0.9" ry="0.9" fill="#f15c5d"/><rect y="12" width="64.7" height="5.32" rx="1" ry="1" fill="#f15c5d"/><rect x="1.6" y="18.4" width="61.4" height="2.92" fill="#f7ed44" stroke="#f7ed44" stroke-linecap="round" stroke-linejoin="round"/><rect x="32.1" y="16.1" width="2.5" height="6.53" fill="#f7ed44" stroke="#f7ed44" stroke-linecap="round" stroke-linejoin="round"/><rect x="32.1" y="22.6" width="2.5" height="2.98" fill="none" stroke="#f7ed44" stroke-linecap="round" stroke-linejoin="round"/><path d="M13.3,48.1c.4,0,.6-.2.6-.7V43.5h1.2v4a1.5,1.5,0,0,1-1.6,1.7,1.3,1.3,0,0,1-.9-.3L13,48Zm1.2-5.2a.7.7,0,0,1-.7-.7.7.7,0,0,1,.7-.8.8.8,0,0,1,.8.8A.8.8,0,0,1,14.5,42.9Z" fill="#f7ed44"/><path d="M19.7,43.5v3.9h-.9a4.5,4.5,0,0,1-.2-.8h0a1.1,1.1,0,0,1-1.2.8,1.4,1.4,0,0,1-1.5-1.5V43.5h1.2v2.2a.6.6,0,0,0,.7.7c.5,0,.7-.5.7-.9v-2Z" fill="#f7ed44"/><path d="M24.4,45v2.4H23.3V45.2a.7.7,0,0,0-.7-.8.9.9,0,0,0-.9.9v2.1H20.6V43.5h.9a2.8,2.8,0,0,1,.1.8h.1a1.1,1.1,0,0,1,1.2-.8A1.4,1.4,0,0,1,24.4,45Z" fill="#f7ed44"/><path d="M26.8,45.7h-.4v1.7H25.3V41.5h1.1v3.4h.5l1-1.4h1.3l-1.5,1.8,1.7,2.1H28Z" fill="#f7ed44"/><path d="M32.8,47.1a2.1,2.1,0,0,1-1.2.3c-1,0-1.5-.5-1.5-1.6V44.3h-.6v-.8h.6V42.4h1.1v1.2h1.4v.8H31.2v1.4c0,.5.2.8.6.8a1.1,1.1,0,0,0,.7-.3Z" fill="#f7ed44"/><path d="M36,43.5l-.3,1.1h-.5c-.4,0-.8.3-.8,1v1.9H33.3V43.5h.9a3.1,3.1,0,0,1,.1.9h0a1.2,1.2,0,0,1,1.1-.9Z" fill="#f7ed44"/><path d="M40.1,43.5v3.9h-.9a2.8,2.8,0,0,1-.1-.8h0a1.2,1.2,0,0,1-1.2.8,1.4,1.4,0,0,1-1.5-1.5V43.5h1.1v2.2a.7.7,0,0,0,.7.7.9.9,0,0,0,.8-.9v-2Z" fill="#f7ed44"/><path d="M44.8,45v2.4H43.7V45.2c0-.5-.2-.8-.7-.8a.8.8,0,0,0-.8.9v2.1H41.1V43.5h.8a4.5,4.5,0,0,1,.2.8h0a1.4,1.4,0,0,1,1.3-.8C44.4,43.4,44.8,44.1,44.8,45Z" fill="#f7ed44"/><path d="M47.2,45.7h-.3v1.7H45.7V41.5h1.2v3.4h.4l1.1-1.4h1.3l-1.5,1.8,1.6,2.1H48.5Z" fill="#f7ed44"/></svg>