<svg id="Layer_1" data-name="Layer 1" xmlns="http://www.w3.org/2000/svg" width="256" height="256" viewBox="0 0 256 256"><title>logo-256</title><rect x="22.6" y="107" width="210.3" height="100.39" rx="4.5" ry="4.5" fill="#f15c5d"/><rect x="17.1" y="82.4" width="221.7" height="16.55" rx="3.6" ry="3.6" fill="#f15c5d"/><rect x="22.6" y="102.3" width="210.3" height="9.09" fill="#f7ed44" stroke="#f7ed44" stroke-linecap="round" stroke-linejoin="round" stroke-width="3"/><rect x="127.2" y="95.1" width="8.6" height="20.32" fill="#f7ed44" stroke="#f7ed44" stroke-linecap="round" stroke-linejoin="round" stroke-width="3"/><rect x="127.2" y="115.4" width="8.6" height="9.26" fill="none" stroke="#f7ed44" stroke-linecap="round" stroke-linejoin="round" stroke-width="3"/><path d="M58,184.5c1.7,0,2.4-1.1,2.4-3V165.6H65v15.9c0,4.2-1.9,7-6.3,7-2.5,0-3.4-1.1-3.4-1.1l1.3-3.2A2.4,2.4,0,0,0,58,184.5Zm4.8-21.3a2.8,2.8,0,0,1-2.9-2.8,3,3,0,0,1,5.9,0A2.8,2.8,0,0,1,62.8,163.2Z" fill="#f7ed44"/><path d="M83.6,165.6v15.8H79.9a27.5,27.5,0,0,1-.5-3.1h0a5,5,0,0,1-4.9,3.2c-3.9,0-5.9-2.7-5.9-6.3v-9.7h4.6v8.9c0,1.9.9,3.2,2.8,3.2s3.1-2.1,3.1-3.9v-8.2Z" fill="#f7ed44"/><path d="M102.6,171.7v9.7H98v-8.9c0-1.9-.9-3.1-2.8-3.1s-3.3,2-3.3,3.8v8.2H87.3V165.6h3.6a15.5,15.5,0,0,1,.6,3.3h.1a5.1,5.1,0,0,1,5.1-3.4C100.6,165.4,102.6,168.1,102.6,171.7Z" fill="#f7ed44"/><path d="M112.2,174.8h-1.4v6.6h-4.6V157.8h4.6v13.5h1.8l4.2-5.7H122l-5.9,7.6,6.6,8.2h-5.6Z" fill="#f7ed44"/><path d="M136.4,180.5a9.2,9.2,0,0,1-4.7,1.1c-4.2,0-6.3-2.2-6.3-6.7v-5.8H123v-3.5h2.6v-4.4l4.4-.2v4.6h5.5v3.5H130v5.6c0,2.1.8,3,2.5,3a4.4,4.4,0,0,0,2.6-.8Z" fill="#f7ed44"/><path d="M149.2,165.9l-1.2,4.4a2.8,2.8,0,0,0-1.8-.6c-1.7,0-3.2,1.4-3.2,4.1v7.6h-4.6V165.6H142a16.3,16.3,0,0,1,.5,3.5h.2c.6-2,1.8-3.6,4.2-3.6A5.6,5.6,0,0,1,149.2,165.9Z" fill="#f7ed44"/><path d="M165.9,165.6v15.8h-3.7a27.5,27.5,0,0,1-.5-3.1h0a5,5,0,0,1-4.9,3.2c-3.9,0-5.9-2.7-5.9-6.3v-9.7h4.6v8.9c0,1.9.9,3.2,2.8,3.2s3.1-2.1,3.1-3.9v-8.2Z" fill="#f7ed44"/><path d="M184.9,171.7v9.7h-4.6v-8.9c0-1.9-.9-3.1-2.7-3.1s-3.4,2-3.4,3.8v8.2h-4.6V165.6h3.6a11,11,0,0,1,.6,3.3h.1a5.1,5.1,0,0,1,5.1-3.4C182.9,165.4,184.9,168.1,184.9,171.7Z" fill="#f7ed44"/><path d="M194.5,174.8h-1.4v6.6h-4.6V157.8h4.6v13.5h1.8l4.2-5.7h5.2l-5.9,7.6,6.6,8.2h-5.6Z" fill="#f7ed44"/></svg>