<svg id="Layer_1" data-name="Layer 1" xmlns="http://www.w3.org/2000/svg" width="32" height="32" viewBox="0 0 32 32"><title>logo-32</title><rect x="0.6" y="9.9" width="30.5" height="16.05" rx="1.1" ry="1.1" fill="#f15c5d"/><rect x="-0.2" y="6" width="32.1" height="2.65" rx="0.5" ry="0.5" fill="#f15c5d"/><rect x="0.6" y="9.2" width="30.5" height="1.45" fill="#f7ed44" stroke="#f7ed44" stroke-linecap="round" stroke-linejoin="round" stroke-width="0.5"/><rect x="15.8" y="8" width="1.2" height="3.25" fill="#f7ed44" stroke="#f7ed44" stroke-linecap="round" stroke-linejoin="round" stroke-width="0.5"/><rect x="15.8" y="11.3" width="1.2" height="1.48" fill="none" stroke="#f7ed44" stroke-linecap="round" stroke-linejoin="round" stroke-width="0.5"/><path d="M4.7,23.5c.3,0,.4-.2.4-.5V20.6h.7V23c0,.7-.3,1.1-1,1.1H4.3l.2-.5Zm.8-3.3a.5.5,0,0,1-.5-.4.5.5,0,0,1,.5-.5.5.5,0,0,1,.5.5A.5.5,0,0,1,5.5,20.2Z" fill="#f7ed44"/><path d="M8.7,20.6V23H8.2c-.1-.1-.1-.4-.1-.4h0a1,1,0,0,1-.8.5.9.9,0,0,1-.9-1V20.6h.7V22a.4.4,0,0,0,.4.4c.4,0,.5-.3.5-.6V20.6Z" fill="#f7ed44"/><path d="M11.7,21.5V23H11V21.6a.4.4,0,0,0-.4-.4.6.6,0,0,0-.6.6V23H9.3V20.6h.6c0,.2.1.5.1.6h0a.8.8,0,0,1,.8-.6A.9.9,0,0,1,11.7,21.5Z" fill="#f7ed44"/><path d="M13.2,22H13v1h-.7V19.4H13v2.1h.3l.6-.9h.8l-.9,1.1,1,1.3H14Z" fill="#f7ed44"/><path d="M17,22.9a1.5,1.5,0,0,1-.8.2c-.6,0-.9-.4-.9-1.1v-.9h-.4v-.5h.4v-.7H16v.7h.8v.5H16V22c0,.3.1.5.4.5a.7.7,0,0,0,.4-.2Z" fill="#f7ed44"/><path d="M19,20.6l-.2.7h-.3c-.3,0-.5.2-.5.6V23h-.7V20.6h.5a1.5,1.5,0,0,1,.1.6H18a.6.6,0,0,1,.6-.6Z" fill="#f7ed44"/><path d="M21.6,20.6V23H21a2.3,2.3,0,0,0-.1-.4h0a.8.8,0,0,1-.7.5,1,1,0,0,1-1-1V20.6H20V22a.4.4,0,0,0,.4.4.6.6,0,0,0,.5-.6V20.6Z" fill="#f7ed44"/><path d="M24.5,21.5V23h-.7V21.6a.4.4,0,0,0-.4-.4c-.4,0-.5.3-.5.6V23h-.7V20.6h.5a1.5,1.5,0,0,1,.1.6h0c.2-.3.4-.6.8-.6A.9.9,0,0,1,24.5,21.5Z" fill="#f7ed44"/><path d="M26,22h-.2v1h-.7V19.4h.7v2.1h.3l.7-.9h.8l-.9,1.1,1,1.3h-.9Z" fill="#f7ed44"/></svg>