<svg height="32" viewBox="0 0 32 32" width="32" xmlns="http://www.w3.org/2000/svg"><g fill="#f16469"><path d="m.5 10.3h.5c.1 1.3.9 1.7 1.6 1.7a.7.7 0 0 0 .7-.7c0-1.4-2.9-1.1-2.9-3.5a2.2 2.2 0 0 1 2.5-2.2 10.6 10.6 0 0 1 2.1.3l-.3 1.7h-.6c-.1-1.1-.6-1.3-1.1-1.3a.7.7 0 0 0 -.7.7c0 1.4 2.9 1.1 2.9 3.4s-1.2 2.2-2.7 2.2-2.3-.3-2.3-1a6.3 6.3 0 0 1 .3-1.3z"/><path d="m6.5 7.7c0-.7 0-1-.5-1h-.3v-.5l3.1-.7h.1a3.8 3.8 0 0 0 -.2 1.5v3c0 1 .4 1.2.8 1.2a2 2 0 0 0 1.1-.4v-3.1c0-.7-.1-1-.5-1h-.3v-.6l3.1-.6h.1a3.8 3.8 0 0 0 -.2 1.5v4c0 .8.4.8.8.8h.3v.5l-3.2.3a5.4 5.4 0 0 0 .1-.8v-.5a2.9 2.9 0 0 1 -2.3 1.3 1.7 1.7 0 0 1 -1.9-1.9z"/><path d="m14.4 12a.9.9 0 0 0 .7-1v-3.4c0-.6 0-.9-.5-.9h-.4v-.5a20.7 20.7 0 0 0 3.2-.8 8.9 8.9 0 0 0 -.2 1.6 3.3 3.3 0 0 1 2.5-1.4 1.7 1.7 0 0 1 1.8 2v3.4a2.8 2.8 0 0 1 -.1.8h1.1v.5h-3.8v-.3c.4-.1.5-.4.5-1v-2.7c0-1-.2-1.2-.7-1.2l-1.2.3v4.4h.7v.5h-3.6z"/><path d="m14.5 20.2h.6v-2c0-.6-.1-.9-.5-.9h-.4v-.5l3.2-.8h.1a5.1 5.1 0 0 0 -.2 1.7v7.8c0 .8.4.8.8.8h.3v.5l-3.3.3a5.4 5.4 0 0 0 .1-.8v-.2a2.3 2.3 0 0 1 -1.9 1 2.8 2.8 0 0 1 -2.7-3 3.9 3.9 0 0 1 3.9-3.9zm-.1 5.7h.7v-4c0-.7-.4-.7-.6-.7s-1.6 1.4-1.6 2.5.3 2.2 1.5 2.2z"/><path d="m21.8 23.1h.5c0-1.2 0-2-.6-2s-1.3 1.6-1.3 1.6h-.8l-.4-1.4a5.9 5.9 0 0 1 3.4-1c1.6 0 2 .6 2 2.1v3.2c0 .5 0 .7.3.7h.5l.2.4a2.8 2.8 0 0 1 -1.9.7c-.8 0-1.3-.3-1.3-.9v-.2a2.7 2.7 0 0 1 -1.9 1.1 1.7 1.7 0 0 1 -1.9-1.7c0-1.7 1.7-2.4 3.2-2.6zm-.2 2.8.7-.2v-1.9h-.4a1.1 1.1 0 0 0 -1 1.2c0 .7.3.9.7.9z"/><path d="m26 26.6a1 1 0 0 0 .8-1v-3.4c0-.5-.1-.9-.5-.9h-.4v-.5a20.7 20.7 0 0 0 3.2-.8 8.3 8.3 0 0 0 -.2 1.8c.2-.3 1-1.6 2.1-1.6a.9.9 0 0 1 1 1 1.1 1.1 0 0 1 -1.1 1.1c-.5 0-.6-.4-1-.4a1.9 1.9 0 0 0 -.9.4v3.3a2.8 2.8 0 0 1 -.1.8h1.3v.6h-4.2z"/></g></svg>