<svg height="64" viewBox="0 0 64 64" width="64" xmlns="http://www.w3.org/2000/svg"><g fill="#f16469"><path d="m.6 20.9h1c.3 2.5 1.9 3.3 3.2 3.3a1.3 1.3 0 0 0 1.5-1.4c0-2.8-6-2.2-6-7 0-2.9 2.4-4.4 5.2-4.4a22.8 22.8 0 0 1 4.2.6l-.7 3.5h-1.1c-.2-2.2-1.2-2.7-2.2-2.7a1.3 1.3 0 0 0 -1.4 1.4c0 2.9 5.9 2.1 5.9 6.8s-2.6 4.6-5.5 4.6-4.7-.7-4.7-2.1a12.6 12.6 0 0 1 .6-2.6z"/><path d="m12.7 15.6c0-1.3-.1-2-.9-2h-.7v-1.1l6.3-1.2h.1a9.8 9.8 0 0 0 -.3 3v5.8c0 2 .7 2.5 1.5 2.5a3.7 3.7 0 0 0 2.2-.9v-6.1c0-1.3-.1-2-.9-2h-.6v-1.2l6.2-1.1h.1a9.8 9.8 0 0 0 -.3 3v7.8c0 1.7.7 1.7 1.7 1.7h.4v1l-6.4.6s.1-.9.1-1.6v-1s-1.6 2.8-4.5 2.8a3.6 3.6 0 0 1 -3.9-4z"/><path d="m28.5 24.2c1-.1 1.4-.8 1.4-1.9v-6.8c0-1.2 0-1.9-.8-1.9h-1v-1.1a35.6 35.6 0 0 0 6.5-1.5h.1a9.4 9.4 0 0 0 -.5 3.1 6.5 6.5 0 0 1 5-2.8c2.1 0 3.6 1.1 3.6 4v6.9a12.6 12.6 0 0 1 -.1 1.6l2.1.3v.9l-7.5.2v-1c.8-.1 1.1-.8 1.1-1.9v-5.5c0-2-.4-2.3-1.5-2.3a4.9 4.9 0 0 0 -2.3.5v7.3a6.5 6.5 0 0 1 -.2 1.6l1.6.3v.9l-7.3.2z"/><path d="m28.7 40.8h1.2v-3.8c0-1.2 0-1.9-.9-1.9h-.9v-1.1a43.5 43.5 0 0 0 6.6-1.5 20.6 20.6 0 0 0 -.2 3.3v15.7c0 1.7.6 1.7 1.6 1.7h.4v1l-6.6.7a9 9 0 0 0 .2-1.6v-.4a5.1 5.1 0 0 1 -3.9 2.1c-2.7 0-5.3-2.5-5.3-6.1a7.9 7.9 0 0 1 7.8-8.1zm-.1 11.3a3 3 0 0 0 1.3-.2v-7.9c0-1.4-.7-1.5-1.1-1.5-2.3 0-3.3 2.8-3.3 5s.6 4.6 3.1 4.6z"/><path d="m43.5 46.6 1-.2c0-2.3 0-4.1-1.2-4.1s-2.7 3.3-2.7 3.3h-1.6l-.7-2.8a11.4 11.4 0 0 1 6.7-2c3.2 0 4 1.2 4 4.2v6.5c0 .8.2 1.4.7 1.4a1.9 1.9 0 0 0 .9-.4l.6.9a5.8 5.8 0 0 1 -3.8 1.5c-1.8 0-2.8-.7-2.8-1.9v-.3a5.2 5.2 0 0 1 -3.8 2.2 3.4 3.4 0 0 1 -3.7-3.5c0-3 3.4-4.4 6.4-4.8zm-.5 5.6a2.8 2.8 0 0 0 1.5-.4v-3.8h-.7a2.3 2.3 0 0 0 -2.1 2.5c0 1.2.6 1.7 1.3 1.7z"/><path d="m52 53.6a1.7 1.7 0 0 0 1.4-1.9v-6.9c0-1.1 0-1.9-.8-1.9h-1v-1a35.6 35.6 0 0 0 6.5-1.5h.1a13.1 13.1 0 0 0 -.5 3.5c.4-.6 2-3.1 4.3-3.1a1.9 1.9 0 0 1 2 2 2.1 2.1 0 0 1 -2.2 2.1c-1.1 0-1.3-.6-2.1-.6a4.4 4.4 0 0 0 -1.7.6v6.8a6.1 6.1 0 0 1 -.2 1.5l2.6.3v1h-8.4z"/></g></svg>