<svg height="256" viewBox="0 0 256 256" width="256" xmlns="http://www.w3.org/2000/svg"><g fill="#f16469"><path d="m13.6 91.8h3.8c.9 9.3 7.2 12.2 11.8 12.2s5.6-1.8 5.6-5.2c0-10.3-22.2-8.4-22.2-26.1 0-11 8.9-16.6 19.1-16.6 6.5 0 16.1 2.2 16.1 2.2l-2.8 13.1h-3.9c-.9-8.2-4.6-10.1-8.3-10.1s-5.5 1.5-5.5 5.3c0 10.7 22.1 8 22.1 25.5 0 12-9.5 17-20.5 17-7.5 0-17.5-2.6-17.5-7.8 0-2.9 2.2-9.5 2.2-9.5z"/><path d="m58.8 71.6c0-4.7-.1-7.5-3.3-7.5h-2.4v-3.9c23.1-4.2 23.5-4.6 23.5-4.6l.2.3s-1 3.1-1 11.5v21.7c0 7.6 2.5 9.5 5.7 9.5s8-3.4 8-3.4v-23.6c0-4.7-.1-7.5-3.3-7.5h-2.2v-4.1c22.4-4 23.3-4.4 23.3-4.4l.2.3s-1 3.1-1 11.5v29.1c0 6.3 2.6 6.3 6.2 6.3h1.6l-.3 3.8c-15.9 1.2-24.1 2.2-24.1 2.2h-.1a36.8 36.8 0 0 0 .7-6.2v-3.9s-6.3 10.4-17 10.4c-8 0-14.7-4.4-14.7-14.9z"/><path d="m118.1 104.1c3.7-.6 5.4-3.2 5.4-7.2v-25.6c0-4.4-.1-7.2-3.3-7.2h-3.5v-3.8a155.1 155.1 0 0 0 24.3-5.7l.3.3s-1 1.8-1.8 11.6c3.8-4.7 9.9-10.4 18.8-10.4s13.5 4.2 13.5 14.9v25.9a29.1 29.1 0 0 1 -.6 5.9l7.9 1.1-.4 3.6-28.2.6v-4c3.1-.6 4.2-3.2 4.2-7.2v-20.5c0-7.5-1.4-8.8-5.6-8.8a21.4 21.4 0 0 0 -8.6 1.9v27.4a34.7 34.7 0 0 1 -.5 5.9l5.8 1.1-.4 3.6-27.3.6z"/><path d="m118.9 166.1a33.8 33.8 0 0 1 4.5.3v-14.5c0-4.4-.1-7.1-3.3-7.1h-3.3v-3.9c20.1-3.9 24.4-5.9 24.4-5.9l.3.3s-1.1 3.9-1.1 12.3v58.9c0 6.3 2.5 6.3 6.2 6.3h1.6l-.3 3.8c-16.1 1.2-25 2.3-25 2.3v-.2a26.4 26.4 0 0 0 1-6.2v-1.4c-3 5.1-10 8-14.7 8-10 0-19.8-9.2-19.8-23s11.3-30 29.5-30zm-.6 42.6a14 14 0 0 0 5.1-.8v-29.8c0-5.3-2.6-5.5-4-5.5-8.9 0-12.5 10.5-12.5 18.8s2.4 17.3 11.4 17.3z"/><path d="m174.3 187.9 3.8-.6c0-8.9.1-15.6-4.7-15.6s-9.9 12.5-9.9 12.5h-5.9l-2.8-10.5s9.4-7.6 25.1-7.6c12.2 0 15.2 4.5 15.2 15.7v24.5c0 3.2.5 5.1 2.4 5.1a7.5 7.5 0 0 0 3.5-1.2l2 3.3a20.7 20.7 0 0 1 -14.2 5.6c-6.5 0-10.3-2.7-10.3-7.1v-1.2s-5.6 8.3-14.3 8.3c-6.1 0-13.8-3.4-13.8-12.9 0-11.4 12.8-16.7 23.9-18.3zm-1.7 21.2a10.6 10.6 0 0 0 5.4-1.7v-14.3l-2.7.5c-5.4 1.1-7.8 4-7.8 9.3s2.2 6.2 5.1 6.2z"/><path d="m206.2 214.1c3.7-.6 5.4-3.2 5.4-7.2v-25.5c0-4.4-.1-7.1-3.3-7.1h-3.5v-3.9a134.3 134.3 0 0 0 24.2-5.8l.3.3a52.7 52.7 0 0 0 -1.7 13.1c1.6-2.3 7.3-11.9 16.1-11.9 5.8 0 7.4 4.5 7.4 7.5a8 8 0 0 1 -8.2 8c-4 0-4.8-2.4-7.7-2.4s-6.6 2.4-6.6 2.4v25.3a36.8 36.8 0 0 1 -.5 6l9.5 1-.4 3.6-31 .6z"/></g></svg>