<svg height="16" viewBox="0 0 16 16" width="16" xmlns="http://www.w3.org/2000/svg"><g fill="#f16469"><path d="m.3 5h.3c0 .7.4.8.7.8s.4-.1.4-.3-1.5-.5-1.5-1.7a1.2 1.2 0 0 1 1.3-1.1l1 .2v.8h-.4c-.1-.5-.3-.6-.5-.6s-.4.1-.4.3 1.4.5 1.4 1.7-.6 1.1-1.3 1.1-1.1-.2-1.1-.5a5.6 5.6 0 0 1 .1-.7z"/><path d="m3.3 3.7c0-.3 0-.5-.3-.5h-.1v-.2l1.5-.3v2.2c0 .5.1.6.3.6l.6-.2v-1.6c0-.3 0-.5-.2-.5h-.2v-.2l1.5-.3v2.7c0 .4.1.4.4.4h.1v.2l-1.6.2v-.7a1.4 1.4 0 0 1 -1.1.7.9.9 0 0 1 -.9-1z"/><path d="m7.1 5.9a.5.5 0 0 0 .4-.5v-1.7c0-.3 0-.5-.2-.5h-.3v-.2a5 5 0 0 0 1.6-.4h.1a3.3 3.3 0 0 0 -.2.8 1.9 1.9 0 0 1 1.3-.7.9.9 0 0 1 .9 1v1.7a1 1 0 0 1 -.1.4h.5v.3h-1.8v-.2c.2-.1.2-.3.2-.5v-1.4c0-.4-.1-.5-.3-.5h-.6v2.3h.4v.3h-1.9z"/><path d="m7.2 9.9h.3v-.9c0-.3 0-.5-.2-.5h-.2v-.2l1.6-.4a2.8 2.8 0 0 0 -.1.8v3.9c0 .4.2.4.4.4h.1v.2l-1.6.2h-.1v-.4a1.2 1.2 0 0 1 -1 .5 1.4 1.4 0 0 1 -1.2-1.5 1.9 1.9 0 0 1 2-2.1zm0 2.8h.3v-2c0-.3-.2-.4-.3-.4s-.8.7-.8 1.3.2 1.1.8 1.1z"/><path d="m10.8 11.3h.3c0-.6 0-1-.3-1s-.7.8-.7.8h-.4l-.2-.7a3.2 3.2 0 0 1 1.7-.5c.8 0 1 .3 1 1v1.6c0 .3 0 .4.1.4h.3v.1a1.2 1.2 0 0 1 -.9.4c-.5 0-.7-.2-.7-.5s-.4.6-.9.6a.8.8 0 0 1 -.9-.9c.1-.8.9-1.2 1.6-1.3zm-.1 1.4h.4v-.9h-.2c-.4.1-.5.3-.5.6s.1.3.3.3z"/><path d="m12.9 13.1a.5.5 0 0 0 .4-.5v-1.7c0-.3 0-.5-.3-.5h-.2v-.2a6.3 6.3 0 0 0 1.6-.4 4.1 4.1 0 0 0 -.1.9 1.4 1.4 0 0 1 1.1-.8c.3 0 .4.3.4.5a.5.5 0 0 1 -.5.5h-.9v1.7a1 1 0 0 1 -.1.4h.7v.3h-2z"/></g></svg>